<svg version="1.0" xmlns="http://www.w3.org/2000/svg" width="400" height="250.667" viewBox="0 0 300 188">
  <path d="M166 49.6c-16.7 3.3-22 11.8-22 35.6 0 27.1 5.8 34.1 30.1 36.3 9.3.8 25.4-1.2 30.7-3.8 6.2-3 10-10.2 10.4-19.7l.3-6.5-9.2-.3-9.1-.3-.7 5.5c-1 8-3.4 9.8-13.2 10.4-9.7.5-15.7-1-18.1-4.5-1.4-2.2-1.7-5-1.7-16.3 0-20.7 1.1-22 17.6-22 9.1 0 10.2.2 12.3 2.3 1.6 1.6 2.6 4.1 3.1 7.6l.7 5.2 9.1-.3 9.2-.3-.3-5.5c-.5-8.8-2.1-13.2-6.1-17-2-2-5.5-4.1-7.7-4.8-3.9-1.4-30.6-2.5-35.4-1.6m79 0c-15.6 2.7-20.5 8.4-22.3 26-1.4 14 .1 28.5 3.6 34.2 5.7 9 13 11.6 32.3 11.5 13.9-.1 22.4-1.7 27.6-5.4 1.5-1.1 3.9-4.5 5.5-7.7 2.7-5.5 2.8-6.1 2.8-22.2 0-18.6-1.3-24.3-6.6-29.8-4.8-4.9-10.5-6.4-26.4-6.7-7.7-.2-15.1-.2-16.5.1m27.4 16.6c2.7 2.8 3.6 7.4 3.6 18.8 0 18.6-1.8 21.1-15.5 21.8-15.9.8-18.6-1.8-19.1-18.8-.4-13.5.6-18.8 4.2-21.8 2.5-2.2 3.3-2.3 13.9-2 9 .2 11.5.6 12.9 2M41.9 74.7c0 13.7-.2 25.7-.4 26.8-.7 3.7-4.1 5.4-10.1 5.1-3-.2-6-.8-6.7-1.5-.6-.6-1.3-4.3-1.5-8.2l-.4-7-8.7.3-8.6.3-.2 7.5c-.3 9.1 2 16.4 5.9 19.3s12.8 4.5 23.3 4.2c16-.4 22.4-4 24.4-13.5.6-3 1.1-16.3 1.1-31.5V50H42zm27.3 10.5.3 35.3 23.5-.1c14.1-.1 25.1-.6 27.6-1.3 10.6-2.9 14.9-9.3 16.5-24.6 1.2-12.1-.2-26.6-3.3-33.1-4.5-9.6-11.3-11.4-42.4-11.4H69zm44.5-18c3.7 1.8 4.5 5.6 4.1 19.7-.4 17.6-.3 17.5-17.2 17.9l-12.3.4-.6-5.4c-.9-6.8-.9-23.2-.1-29.1l.7-4.6 8.1-.3c9.8-.4 14.4 0 17.3 1.4"/>
</svg>
