<svg version="1.0" xmlns="http://www.w3.org/2000/svg" width="400" height="226.667" viewBox="0 0 300 170">
  <path d="M264.5 35c-1.1 1.3-4.6 4-7.8 6.2-3.2 2.1-7.3 5.3-9.1 6.9l-3.4 2.9-3.1-4.2c-1.7-2.3-3.1-4.6-3.1-5s-.4-.8-.9-.8c-1 0-5.1 12.1-5.1 15.1 0 3.2 2.6 7.4 5.6 8.7 3.6 1.7 3.9 1.1 1.5-3.4-1.2-2.1-2.1-5-2.1-6.4.1-2.1.3-1.8 1.5 1.3 1.4 4.2 5.1 8.7 7 8.7 2.2 0 9.4-5.9 12.5-10.2 1.6-2.2 3-3.6 3-2.9 0 2.2-2.1 5.5-6.3 9.8-3.2 3.4-4.8 4.3-7.5 4.3-12.6 0-18.5 17.9-9.3 28.2 2.4 2.7 3.6 3.2 8.7 3.6 5.4.4 6.3.1 9.3-2.4 1.9-1.5 4-4.3 4.7-6.1 2.6-6.2 1.2-15.8-2.9-19.2-2.4-1.9-2.1-2.5 1.7-3.9 5.6-2.1 8-6.9 8.4-17.7.2-4.9 0-10.5-.5-12.3l-.8-3.4zm-14.1 34.6c1.3 1.2 1.6 3.8 1.6 12 0 5.8-.5 11.4-1 12.5-1.5 2.6-4.6 2.4-6.6-.6-2-3.1-1.7-21.2.5-23.8 1.7-2.1 3.5-2.1 5.5-.1M94.5 53.7C98.9 54.8 99 55.4 99 75s-.1 20.2-4.5 21.3c-1.1.2 3.2.5 9.5.5s10.4-.3 9-.7c-2.4-.7-2.5-1-2.8-10.5l-.3-9.8 2.8.6c3.3.8 7.3 4.9 7.3 7.7 0 1 .5 1.9 1 1.9.6 0 1-4.2 1-10.5 0-5.8-.4-10.5-.8-10.5s-1.3 1.5-2 3.4c-1.2 3.3-5.7 6.3-8.2 5.4-.7-.2-1.2-3.6-1.2-9.3l-.1-9 6.2.2c7.8.3 9.8 1.4 12.1 6.6l1.9 4.2v-6.8l.1-6.7-18.7.1c-10.4.1-17.9.4-16.8.6"/>
  <path d="M221.5 58.7c-1 1.6-3.9 4.7-6.4 7-4 3.7-4.3 4.3-2.3 4.3 2.1 0 2.2.3 2.2 9.9 0 5.4.5 11.2 1 12.8 1.1 3 4.5 5.3 7.8 5.3 2.3 0 5.9-2.6 7.3-5.3 1.2-2.2 1.2-2.2-.9-.3-1.2 1-2.8 1.6-3.7 1.3-1.2-.5-1.5-2.7-1.5-12.2V70h3.5c2.4 0 3.5-.5 3.5-1.5s-1.1-1.5-3.5-1.5H225v-5.5c0-6.1-.9-6.8-3.5-2.8M40.7 57.6c-.3.3-1.9.7-3.5.9-5.2.4-9.9 3.9-11.3 8.4-.7 2.3-1 4.4-.7 4.7s4.2-1.3 8.7-3.5c8.3-4.2 14.1-5.3 14.1-2.7 0 .8-3.4 5.4-7.6 10.3-9.2 10.7-11.2 14.2-9.8 18.1 2 5.9 6.5 3.2 19.3-11.3 5.2-6 5.2-6 3.6-2-.9 2.2-2.1 5-2.6 6.3-2.4 6.2.5 12.1 5.5 10.8 4.3-1.1 12.2-10.1 16.7-19.2 3.9-8 6.2-17.4 4.2-17.4-1.2 0-4.5 5.8-3.9 6.9C75.2 70.7 59.3 92 55.5 92c-3.2 0-1.9-3.3 7.2-18.7C68 64.4 68.8 61 65.6 61c-.8 0-4.5 3.7-8.2 8.2C44.4 85.1 36 92.8 36 89.1c0-.5 3-4.6 6.6-9.2 3.6-4.5 7.2-9.5 8-11 1.7-3.4 1.8-9.1.2-10.7-1.2-1.2-9-1.7-10.1-.6m94.9 10.3c-4.9 3.3-7.1 7.8-7.1 14.6.1 10.3 4.7 15.5 13.6 15.5 3.5 0 4.7-.6 8.2-4 4.1-4.2 4.5-7 .4-3.2-4.5 4.3-10.8 1.9-12.7-4.6-.5-2-1-4-1-4.5 0-.4 3.8-.7 8.5-.7 9.3 0 9.2.1 7.5-6.2-2.2-7.7-10.9-11.2-17.4-6.9m8.8 2.3c.9 1.2 1.6 3.7 1.6 5.5 0 3.3-.1 3.3-4.6 3.3h-4.7l.6-4c.9-6.8 4.2-9 7.1-4.8m19.1-2.8c-5.3 2.3-7.3 6.4-4.6 9.7 1.3 1.7 2.4 2 4.3 1.6 3.4-.9 4.2-3.2 2.2-6.2-1.5-2.3-1.5-2.5.9-3.6 4-1.8 6.7.3 6.7 5.1 0 3.7-.2 4-6.1 7.1-7 3.7-9.9 7-9.9 11 0 4.3 3.9 6.5 8.9 5 2.1-.6 4.4-1.8 5.1-2.6 1.1-1.3 1.5-1.1 3.2 1 2.5 3.2 5.9 3.2 9.5 0 2.4-2.2 2.5-2.5.8-2.3-1.9.3-2-.4-2.3-10.9-.3-11.1-.3-11.2-3.3-13.7-3.5-3-10.2-3.5-15.4-1.2m9.3 18.8c-.3 5.1-.4 5.3-3.3 5.3-4.2 0-4.7-3.7-.9-7.6 1.5-1.6 3.2-2.9 3.6-2.9.5 0 .8 2.4.6 5.2m19.9-19.1c-2.5 1.5-4.7 7-4 10 .8 3.3 2 4.6 8 9.1 3.9 2.9 5.3 4.5 5.3 6.4 0 5.3-6.5 3.8-10.7-2.5l-2.3-3.4v10.8l7.3.3c6.8.2 7.6 0 10-2.4 2.1-2 2.7-3.7 2.7-6.8 0-4.5-1.9-6.9-10.2-13.1-4-2.9-4.6-4.6-2.4-6.4 2-1.7 6.3.3 8.4 3.9 2.2 3.9 3.2 3.8 3.1-.3-.1-4.2-1.3-7.5-2.3-5.9-.5.8-1.4.8-3.2.2-3.3-1.3-7.4-1.2-9.7.1m73 2.7c-3.5 3.8-.7 10.2 4.4 10.2 2.3 0 4.9-3.2 4.9-6.2 0-5-6.1-7.6-9.3-4m6.8.8c2.1 2.1 1.6 5.3-1 7-1.8 1.2-2.4 1.1-4.3-.2-2.6-1.8-2.8-4.6-.6-6.8 2-2 3.8-2 5.9 0"/>
  <path d="M267 74c0 3 1.4 4.1 2.3 1.7q.6-1.5.6 0c.2 2.7 2.1 1.1 2.1-1.7 0-2.5-.4-3-2.5-3s-2.5.5-2.5 3m-185.5.8c-1.7 1-4.5 3.5-6.3 5.6-2.7 3-3.2 4.5-3.2 8.5 0 9.6 7 10.8 15 2.6 5-5.1 5-5.7 0-2-4.1 3-8.5 3.3-10 .5-.9-1.6-.6-2.2 1.7-3.6 8.7-5.3 10.3-6.6 10.9-8.8 1.2-4.8-2.6-6.1-8.1-2.8m4.5 2.6c0 1.5-6.4 7.6-8 7.6-1.9 0-.9-2.3 2.4-5.6 3.6-3.6 5.6-4.3 5.6-2"/>
</svg>
